# xmcd
# 
# Track frame offsets:
#     150
#     22236
#     44368
#     58235
#     68193
#     78398
#     94902
#     109973
#     126810
#     147772
#     168908
#     190172
#     206576
#     221488
#     242429
#     256323
#     270925
# 
# Disc length: 3983
# 
# Revision: 0
# Processed by: cddbd v1.5.2PL0 Copyright (c) Steve Scherf et al.
# Submitted via: fre:ac v1.0.17
# 
DISCID=f60f8d11
DTITLE=Various Artist - Toulon City Blues CD2
DYEAR=2002
DGENRE=Blues
TTITLE0=Lightnin' Pickers - Rock me baby
TTITLE1=Texako - Good morning love
TTITLE2=Urban Blues - Key to the highway
TTITLE3=Jean Paul Bonnafoux - Kind hearted woman
TTITLE4=Kaptain Melody - Take it easy
TTITLE5=Slidin' Delta - Dough roller blues
TTITLE6=Johnny Favourite - Little red rooster
TTITLE7=Marc Rouseau - House of the rising sun
TTITLE8=No Smoking - Divin' duck
TTITLE9=Fred Messadi Live Band - The sky is crying
TTITLE10=Lady V and V Avelino - Red house
TTITLE11=Dead Flowers - Love in vain
TTITLE12=Lightnin' Pickers - Police dog blues
TTITLE13=Roland Malines - Stop break down
TTITLE14=Magic Buck - Bull frog blues
TTITLE15=Cosimo and Co - Crossroads
TTITLE16=Michel Musetti - Hear my train a' comin'
EXTD=Enregistré par TANDEM à TOULON FRANCE VAR
EXTT0=
EXTT1=
EXTT2=
EXTT3=
EXTT4=
EXTT5=
EXTT6=
EXTT7=
EXTT8=
EXTT9=
EXTT10=
EXTT11=
EXTT12=
EXTT13=
EXTT14=
EXTT15=
EXTT16=
PLAYORDER=
